<?xml version="1.0" encoding="utf-8"?>
<!-- Generator: Adobe Illustrator 20.0.0, SVG Export Plug-In . SVG Version: 6.00 Build 0)  -->
<svg version="1.1" id="Calque_1" xmlns="http://www.w3.org/2000/svg" xmlns:xlink="http://www.w3.org/1999/xlink" x="0px" y="0px"
	 viewBox="0 0 18.3 30.1" style="enable-background:new 0 0 18.3 30.1;" xml:space="preserve">
<style type="text/css">
	.st0{fill:#242258;}
</style>
<g>
	<path class="st0" d="M17.3,3.5c-1.2,0-1.9,1.2-2.2,2.3c-0.2,0.8-1.3,1.5-1.8,1.8c-0.4-0.7-0.4-1.9-0.5-2.1c0-0.1-0.4-0.6-0.9-0.9
		l0,0c0,0,0.3-1.5,0.4-3s-1-1.5-1-1.5c-0.9,0-1.2,1-0.9,1.8c0.3,0.9,0,2.9,0,2.9C9.7,5.3,9.1,5.2,9.1,5.2S8.6,5.3,7.9,4.8
		c0,0-0.3-2.1,0-2.9C8.1,1,7.9,0,6.9,0c0,0-1.2,0-1,1.5s0.4,3,0.4,3l0,0C5.8,4.9,5.5,5.3,5.4,5.5C5.4,5.7,5.3,6.8,4.9,7.5
		c-0.5-0.3-1.6-1-1.8-1.8C2.9,4.6,2.1,3.5,1,3.5c-1.2,0-1.8,3.8,1.2,5.8c0.5,0.4,1,0.7,1.3,1c0.3,1.3,0.9,2.3,1.4,2.7
		c0.5,0.5-0.1,1.7,1.4,3.4c1.5,1.7-0.2,1.6,0.2,3.2s1.5,2.5,2.6,2.8c1.1-0.2,2.2-1.1,2.6-2.8s-1.3-1.5,0.2-3.2
		c1.5-1.7,0.9-2.9,1.4-3.4c0.4-0.4,1.1-1.5,1.4-2.7c0.4-0.3,0.8-0.6,1.3-1C19.1,7.2,18.5,3.5,17.3,3.5z"/>
	<path class="st0" d="M12.4,16.5L12.4,16.5c-0.1,0-0.1,0.1-0.2,0.1c-0.7,0.8-0.6,1.1-0.4,1.5c0.2,0.3,0.4,0.8,0.2,1.6
		c-0.4,1.6-1.5,2.7-2.8,3l-0.1,0l0,0l0,0l-0.1,0c-1.4-0.3-2.4-1.4-2.8-3c-0.2-0.8,0-1.3,0.2-1.6c0.2-0.4,0.4-0.7-0.4-1.5
		c0,0-0.1-0.1-0.1-0.1H5.9c0,0-1.3,7.1-1.2,9.5c0.1,1.8,2.4,3.3,3.7,3.9c0.4,0.2,1,0.2,1.4,0c1.2-0.6,3.6-2.1,3.7-3.9
		C13.6,23.6,12.4,16.5,12.4,16.5z"/>
</g>
</svg>
