<?xml version="1.0" encoding="utf-8"?>
<!-- Generator: Adobe Illustrator 20.0.0, SVG Export Plug-In . SVG Version: 6.00 Build 0)  -->
<svg version="1.1" id="Calque_1" xmlns="http://www.w3.org/2000/svg" xmlns:xlink="http://www.w3.org/1999/xlink" x="0px" y="0px"
	 viewBox="0 0 117.9 61.3" style="enable-background:new 0 0 117.9 61.3;" xml:space="preserve">
<style type="text/css">
	.st0{fill:#242258;}
</style>
<path class="st0" d="M97,0.7c-4.5,0-8.6,1.4-12.1,3.8V0H0v18.8c0,23.5,19,42.5,42.5,42.5h0c17.5,0,32.5-10.6,39-25.7
	c3.8,4.2,9.3,6.9,15.5,6.9c11.6,0,20.9-9.4,20.9-20.9S108.6,0.7,97,0.7z M97,36.7c-5.7,0-10.7-3.2-13.3-7.8c0.8-3.2,1.2-6.6,1.2-10
	v-6.4c2.8-3.6,7.1-6,12.1-6c8.4,0,15.1,6.8,15.1,15.1S105.4,36.7,97,36.7z"/>
</svg>
