<?xml version="1.0" encoding="utf-8"?>
<!-- Generator: Adobe Illustrator 20.0.0, SVG Export Plug-In . SVG Version: 6.00 Build 0)  -->
<svg version="1.1" id="Calque_1" xmlns="http://www.w3.org/2000/svg" xmlns:xlink="http://www.w3.org/1999/xlink" x="0px" y="0px"
	 viewBox="0 0 185.5 100.9" style="enable-background:new 0 0 185.5 100.9;" xml:space="preserve">
<style type="text/css">
	.st0{fill:#FFFFFF;}
</style>
<g>
	<path class="st0" d="M75.4,57.4c0.4-4.9,0.4-9.8-0.1-14.7l-25.7-6.4l25.3,2.7c-0.1-0.6-0.2-1.2-0.3-1.8C54.8,6.8,12.2,1.4,12.2,1.4
		c-14.8,32.7-14.4,65.3,1.1,98c42.7-7,61.4-35.1,61.4-35.1c0.2-1.1,0.3-2.1,0.4-3.2l-25.4,2.7L75.4,57.4z"/>
</g>
<g>
	<path class="st0" d="M110.2,57.4c-0.4-4.9-0.4-9.8,0.1-14.7l25.7-6.4l-25.3,2.7c0.1-0.6,0.2-1.2,0.3-1.8
		c19.8-30.4,62.5-35.8,62.5-35.8c14.8,32.7,14.4,65.3-1.1,98c-42.7-7-61.4-35.1-61.4-35.1c-0.2-1.1-0.3-2.1-0.4-3.2l25.4,2.7
		L110.2,57.4z"/>
</g>
</svg>
